<?xml version="1.0" encoding="UTF-8" standalone="no"?>
<!-- Created with Inkscape (http://www.inkscape.org/) -->

<svg
   width="12.349884mm"
   height="12.35mm"
   viewBox="0 0 12.349884 12.35"
   version="1.1"
   id="svg5"
   inkscape:export-filename="icons/128.png"
   inkscape:export-xdpi="263.25754"
   inkscape:export-ydpi="263.25754"
   inkscape:version="1.2.2 (b0a8486541, 2022-12-01)"
   sodipodi:docname="icon.svg"
   xml:space="preserve"
   xmlns:inkscape="http://www.inkscape.org/namespaces/inkscape"
   xmlns:sodipodi="http://sodipodi.sourceforge.net/DTD/sodipodi-0.dtd"
   xmlns:xlink="http://www.w3.org/1999/xlink"
   xmlns="http://www.w3.org/2000/svg"
   xmlns:svg="http://www.w3.org/2000/svg"><sodipodi:namedview
     id="namedview7"
     pagecolor="#ffffff"
     bordercolor="#666666"
     borderopacity="1.0"
     inkscape:showpageshadow="2"
     inkscape:pageopacity="0.0"
     inkscape:pagecheckerboard="0"
     inkscape:deskcolor="#d1d1d1"
     inkscape:document-units="mm"
     showgrid="false"
     inkscape:zoom="7.2978676"
     inkscape:cx="36.723056"
     inkscape:cy="17.128291"
     inkscape:window-width="2560"
     inkscape:window-height="1368"
     inkscape:window-x="0"
     inkscape:window-y="359"
     inkscape:window-maximized="1"
     inkscape:current-layer="text236" /><defs
     id="defs2"><linearGradient
       id="NewGrounds"><stop
         style="stop-color:#e6b536;stop-opacity:1"
         offset="0"
         id="stop1137" /><stop
         style="stop-color:#dd7c35;stop-opacity:1;"
         offset="1"
         id="stop1139" /></linearGradient><linearGradient
       id="NewGrounds-1"><stop
         style="stop-color:#e6b536;stop-opacity:1"
         offset="0"
         id="stop954" /><stop
         style="stop-color:#dd7c35;stop-opacity:1;"
         offset="1"
         id="stop956" /></linearGradient><linearGradient
       id="linearGradient927"
       inkscape:collect="always"><stop
         style="stop-color:#000000;stop-opacity:1;"
         offset="0"
         id="stop923" /><stop
         style="stop-color:#000000;stop-opacity:0;"
         offset="1"
         id="stop925" /></linearGradient><linearGradient
       inkscape:collect="always"
       xlink:href="#linearGradient927"
       id="linearGradient929"
       x1="48.044872"
       y1="101.63821"
       x2="57.86853"
       y2="101.63821"
       gradientUnits="userSpaceOnUse" /><linearGradient
       inkscape:collect="always"
       xlink:href="#NewGrounds"
       id="linearGradient960"
       x1="53.258411"
       y1="96.609108"
       x2="53.452873"
       y2="106.16399"
       gradientUnits="userSpaceOnUse"
       spreadMethod="pad" /><linearGradient
       inkscape:collect="always"
       xlink:href="#NewGrounds"
       id="linearGradient1510"
       gradientUnits="userSpaceOnUse"
       x1="53.258411"
       y1="96.609108"
       x2="53.452873"
       y2="106.16399"
       spreadMethod="pad"
       gradientTransform="matrix(0.75783596,0,0,0.75783596,12.916441,27.843444)" /><linearGradient
       inkscape:collect="always"
       xlink:href="#NewGrounds"
       id="linearGradient1728"
       gradientUnits="userSpaceOnUse"
       x1="53.258411"
       y1="96.609108"
       x2="53.452873"
       y2="106.16399"
       spreadMethod="pad" /><linearGradient
       inkscape:collect="always"
       xlink:href="#NewGrounds"
       id="linearGradient1730"
       gradientUnits="userSpaceOnUse"
       x1="53.258411"
       y1="96.609108"
       x2="53.452873"
       y2="106.16399"
       spreadMethod="pad" /></defs><g
     inkscape:label="Layer 1"
     inkscape:groupmode="layer"
     id="layer1"
     transform="translate(-47.162629,-99.45112)"><g
       aria-label="NG"
       id="text236"
       style="font-size:11.2889px;line-height:1.25;font-family:'Newgrounds Font';-inkscape-font-specification:'Newgrounds Font, Normal';fill:url(#linearGradient960);stroke:#4c2f18;stroke-width:1.765;stroke-linecap:round;paint-order:stroke fill markers"><g
         id="g1726"
         style="fill:url(#linearGradient1730)"
         transform="matrix(1,0,0,0.99422064,0,0.57476385)"><path
           id="path1263"
           style="font-size:11.2889px;fill:url(#linearGradient1510);stroke-width:1.33758"
           d="m 49.631451,101.62397 c -0.08633,0 -0.158476,0.0292 -0.216959,0.0877 -0.05849,0.064 -0.08773,0.1366 -0.08773,0.21736 v 7.46595 c 0,0.0863 0.02925,0.15887 0.08773,0.21735 0.05849,0.0585 0.130628,0.0877 0.216959,0.0877 h 0.610147 c 0.08076,0 0.152907,-0.0292 0.216959,-0.0877 0.05849,-0.0585 0.08772,-0.13101 0.08772,-0.21735 v -6.24604 c 0,-0.0835 0.02925,-0.15457 0.08773,-0.21305 0.06126,-0.0612 0.133804,-0.092 0.21735,-0.092 h 0.614065 c 0.08355,0 0.15456,0.0307 0.213042,0.092 0.06126,0.0585 0.09203,0.1295 0.09203,0.21305 v 6.24604 c 0,0.0863 0.02924,0.15887 0.08773,0.21735 0.06126,0.0585 0.133412,0.0877 0.216958,0.0877 h 0.610149 c 0.08355,0 0.155692,-0.0292 0.216959,-0.0877 0.05849,-0.0585 0.08772,-0.13101 0.08772,-0.21735 v -7.16087 c 0,-0.16988 -0.05961,-0.31344 -0.179363,-0.4304 -0.116965,-0.11975 -0.260517,-0.17975 -0.430393,-0.17975 z m 4.66305,0 c -0.169877,0 -0.31456,0.06 -0.43431,0.17975 -0.116964,0.11696 -0.175446,0.26052 -0.175446,0.4304 v 6.85619 c 0,0.16709 0.05849,0.31176 0.175446,0.43431 0.122534,0.11696 0.267218,0.17544 0.43431,0.17544 h 2.443725 c 0.164307,0 0.307859,-0.0585 0.430393,-0.17544 0.119749,-0.11976 0.179755,-0.26443 0.179755,-0.43431 v -2.81839 c 0,-0.0808 -0.02924,-0.15291 -0.08772,-0.21696 -0.06126,-0.0585 -0.133804,-0.0877 -0.21735,-0.0877 H 55.8234 c -0.08633,0 -0.158477,0.0303 -0.21696,0.0916 -0.06126,0.0585 -0.09202,0.12949 -0.09202,0.21304 v 0.61014 c 0,0.0863 0.03077,0.15847 0.09202,0.21697 0.05849,0.0612 0.130628,0.092 0.21696,0.092 h 0.305074 v 0.98443 c 0,0.0836 -0.03076,0.15569 -0.09204,0.21695 -0.05849,0.0585 -0.129496,0.0877 -0.213042,0.0877 h -0.614065 c -0.08076,0 -0.152907,-0.0292 -0.216958,-0.0877 -0.05849,-0.064 -0.08772,-0.13619 -0.08772,-0.21695 v -5.02653 c 0,-0.0835 0.02924,-0.15457 0.08772,-0.21305 0.06126,-0.0612 0.133412,-0.092 0.216958,-0.092 h 0.614065 c 0.08355,0 0.15456,0.0307 0.213042,0.092 0.06126,0.0585 0.09204,0.1295 0.09204,0.21305 v 1.72614 c 0,0.0836 0.02925,0.15456 0.08772,0.21303 0.06127,0.0612 0.133805,0.0916 0.217351,0.0916 h 0.609756 c 0.08355,0 0.156083,-0.0303 0.21735,-0.0916 0.05849,-0.0585 0.08772,-0.12949 0.08772,-0.21303 v -2.64097 c 0,-0.16988 -0.06,-0.31344 -0.179755,-0.4304 -0.116964,-0.11975 -0.260516,-0.17975 -0.430393,-0.17975 z"
           sodipodi:nodetypes="scssssscssssscsscsscsscsssssscsscsscsscsscscsssscssssscsssssssscss" /><g
           id="g1718"
           style="fill:url(#linearGradient1728)"><path
             style="fill:#000000;fill-rule:evenodd;stroke:none;stroke-width:0.757821"
             d="m 57.996868,110.35729 h -2.273467 v 1.51562 h 3.789112 v -3.78909 h -1.515645 z"
             id="path1504" /><path
             style="font-size:11.2889px;line-height:1.25;font-family:'Newgrounds Font';-inkscape-font-specification:'Newgrounds Font, Normal';fill:#000000;fill-rule:evenodd;stroke:none;stroke-width:0.757821;stroke-linecap:round;paint-order:stroke fill markers"
             d="m 57.996893,100.96676 v 2.27347 h 1.51562 v -3.78911 h -3.78909 v 1.51564 z"
             id="path1504-6" /><path
             style="font-size:11.2889px;line-height:1.25;font-family:'Newgrounds Font';-inkscape-font-specification:'Newgrounds Font, Normal';fill:#000000;fill-rule:evenodd;stroke:none;stroke-width:0.757821;stroke-linecap:round;paint-order:stroke fill markers"
             d="m 48.678269,100.96674 h 2.27347 v -1.51562 h -3.78911 v 3.78909 h 1.51564 z"
             id="path1504-6-3" /><path
             style="font-size:11.2889px;line-height:1.25;font-family:'Newgrounds Font';-inkscape-font-specification:'Newgrounds Font, Normal';fill:#000000;fill-rule:evenodd;stroke:none;stroke-width:0.757821;stroke-linecap:round;paint-order:stroke fill markers"
             d="m 48.678249,110.35727 v -2.27347 h -1.51562 v 3.78911 h 3.78909 v -1.51564 z"
             id="path1504-6-3-2" /></g></g></g></g></svg>
